<?xml version="1.0" encoding="UTF-8"?>
<!DOCTYPE svg PUBLIC "-//W3C//DTD SVG 1.1//EN" "http://www.w3.org/Graphics/SVG/1.1/DTD/svg11.dtd">
<svg xmlns="http://www.w3.org/2000/svg" version="1.1" width="302px" height="303px" style="shape-rendering:geometricPrecision; text-rendering:geometricPrecision; image-rendering:optimizeQuality; fill-rule:evenodd; clip-rule:evenodd" xmlns:xlink="http://www.w3.org/1999/xlink">
<g><path style="opacity:0.048" fill="#efefef" d="M 102.5,2.5 C 134.168,2.33335 165.835,2.50002 197.5,3C 254.524,16.0211 288.357,51.1878 299,108.5C 299.667,137.5 299.667,166.5 299,195.5C 289.715,244.919 261.548,278.419 214.5,296C 208.023,298.286 201.356,299.619 194.5,300C 162.142,300.932 129.809,300.598 97.5,299C 52.3848,287.05 21.8848,259.216 6,215.5C 3.55302,208.712 2.21968,201.712 2,194.5C 1.0778,162.477 1.41113,130.477 3,98.5C 17.3878,46.9441 50.5545,14.9441 102.5,2.5 Z"/></g>
<g><path style="opacity:0.994" fill="#020202" d="M 114.5,3.5 C 140.859,3.09696 167.193,3.59696 193.5,5C 252.747,17.5811 287.58,53.7477 298,113.5C 298.667,136.833 298.667,160.167 298,183.5C 292.596,235.222 266.096,271.389 218.5,292C 195.333,298.839 171.667,301.339 147.5,299.5C 100.614,304.122 61.447,289.122 30,254.5C 13.9232,233.614 4.92323,209.947 3,183.5C 2.33333,160.167 2.33333,136.833 3,113.5C 14.5904,50.742 51.7571,14.0753 114.5,3.5 Z"/></g>
<g><path style="opacity:0.999" fill="#fbfbfb" d="M 88.5,193.5 C 72.7969,194.151 57.4636,193.484 42.5,191.5C 63.7316,149.37 85.2316,107.37 107,65.5C 129.41,108.491 151.91,151.324 174.5,194C 166.738,208.455 159.071,222.955 151.5,237.5C 136.75,210.334 122.25,183.001 108,155.5C 101.219,168.064 94.7186,180.73 88.5,193.5 Z"/></g>
<g><path style="opacity:0.998" fill="#fbfbfb" d="M 259.5,192.5 C 244.009,193.496 228.342,193.83 212.5,193.5C 197.587,166.009 182.92,138.342 168.5,110.5C 175.567,95.2741 183.567,80.6074 192.5,66.5C 214.831,108.495 237.165,150.495 259.5,192.5 Z"/></g>
<g><path style="opacity:1" fill="#373737" d="M 42.5,191.5 C 57.4636,193.484 72.7969,194.151 88.5,193.5C 73.0089,194.496 57.3422,194.83 41.5,194.5C 41.2627,193.209 41.596,192.209 42.5,191.5 Z"/></g>
<g><path style="opacity:1" fill="#363636" d="M 259.5,192.5 C 260.043,192.56 260.376,192.893 260.5,193.5C 244.338,194.827 228.338,194.827 212.5,193.5C 228.342,193.83 244.009,193.496 259.5,192.5 Z"/></g>
</svg>
